<svg width="17" height="17" viewBox="0 0 17 17" fill="none" xmlns="http://www.w3.org/2000/svg">
<path d="M4.45553 16.2188H1.18851V5.93734H4.45553V16.2188ZM2.82202 4.49601C1.76505 4.49601 0.996338 3.7273 0.996338 2.67033C0.996338 1.61336 1.86114 0.84465 2.82202 0.84465C3.87899 0.84465 4.6477 1.61336 4.6477 2.67033C4.6477 3.7273 3.87899 4.49601 2.82202 4.49601ZM16.3705 16.2188H13.1035V10.6457C13.1035 9.01217 12.4309 8.53172 11.47 8.53172C10.5091 8.53172 9.5482 9.30043 9.5482 10.7418V16.2188H6.2812V5.93734H9.35603V7.37866C9.64429 6.70604 10.7974 5.64907 12.4309 5.64907C14.2565 5.64907 16.1783 6.70604 16.1783 9.87696V16.2188H16.3705Z" fill="white"/>
</svg>
