<svg width="160" height="160" viewBox="0 0 160 160" fill="none" xmlns="http://www.w3.org/2000/svg">
<g clip-path="url(#clip0_16_253)">
<rect width="160" height="160" rx="80" fill="#E1FF82"/>
<circle cx="79.3826" cy="81.0035" r="10.8709" fill="#1E1E1E"/>
<path d="M122.072 122.344C98.8479 145.568 61.1934 145.568 37.9688 122.344" stroke="#1E1E1E" stroke-width="1.27893"/>
<path d="M25.5059 102.863C24.8879 101.412 24.6921 100.181 24.9186 99.1684C25.1308 98.1504 25.7836 97.4086 26.8769 96.943C27.4732 96.6891 28.0316 96.5804 28.5521 96.6171C29.0585 96.648 29.5326 96.8101 29.9745 97.1033C30.4022 97.3908 30.7984 97.7974 31.1632 98.3231C31.528 98.8487 31.8649 99.4744 32.1738 100.2L32.6627 101.348L36.4942 99.7161L37.1101 101.162L26.9276 105.499C26.6546 105.134 26.3974 104.709 26.156 104.225C25.9003 103.735 25.6836 103.281 25.5059 102.863ZM26.7223 102.205C26.9847 102.821 27.2007 103.286 27.3702 103.602L31.4253 101.875L30.9618 100.787C30.7502 100.29 30.5299 99.855 30.301 99.4828C30.0621 99.1149 29.811 98.8285 29.5476 98.6236C29.27 98.4131 28.9653 98.2904 28.6335 98.2556C28.3017 98.2208 27.927 98.2923 27.5096 98.47C27.112 98.6394 26.8179 98.8586 26.6272 99.1276C26.4323 99.3868 26.3174 99.6823 26.2826 100.014C26.2336 100.34 26.2534 100.69 26.3419 101.063C26.4304 101.436 26.5572 101.817 26.7223 102.205Z" fill="black"/>
<path d="M30.7648 84.9975L32.1006 84.7362L33.3978 91.3676L22.3772 93.5233L22.0754 91.9808L31.7602 90.0864L30.7648 84.9975Z" fill="black"/>
<path d="M20.8202 82.6645L20.758 81.0939L31.9787 80.6496L32.0409 82.2202L20.8202 82.6645Z" fill="black"/>
<path d="M31.9389 77.1308L20.7853 75.8273L21.5715 69.0998L22.9074 69.2559L22.3036 74.4223L25.6674 74.8154L26.2034 70.2284L27.5232 70.3827L26.9871 74.9696L32.1213 75.5697L31.9389 77.1308Z" fill="black"/>
<path d="M25.0502 57.2342L26.3417 57.6639L25.2267 61.0158L34.5906 64.1306L34.0945 65.6221L24.7306 62.5072L23.6156 65.8592L22.324 65.4295L25.0502 57.2342Z" fill="black"/>
<path d="M31.7527 45.3897C32.6946 44.1246 33.6597 43.3347 34.6481 43.0201C35.6343 42.6903 36.604 42.8803 37.5572 43.5899C38.0771 43.9769 38.4524 44.4045 38.6831 44.8725C38.9115 45.3254 39.0105 45.8166 38.98 46.346C38.9473 46.8603 38.7958 47.4075 38.5256 47.9875C38.2555 48.5675 37.8849 49.1738 37.414 49.8063L36.6689 50.8072L40.0094 53.294L39.0708 54.5548L30.1932 47.9458C30.3711 47.526 30.6083 47.0898 30.9048 46.6372C31.1992 46.1695 31.4818 45.7537 31.7527 45.3897ZM32.935 46.1082C32.535 46.6455 32.2416 47.0668 32.0547 47.3721L35.5901 50.004L36.2965 49.0552C36.619 48.6219 36.8833 48.2126 37.0894 47.8273C37.2867 47.4356 37.4075 47.0743 37.4517 46.7436C37.4937 46.3977 37.4461 46.0728 37.3089 45.7686C37.1717 45.4644 36.9211 45.1769 36.5572 44.906C36.2106 44.6479 35.873 44.5044 35.5445 44.4753C35.2225 44.4375 34.9094 44.4873 34.6052 44.6245C34.2988 44.7465 34.0068 44.9399 33.729 45.2045C33.4512 45.469 33.1865 45.7703 32.935 46.1082Z" fill="black"/>
<path d="M49.8329 40.9245L50.7318 41.9466L45.658 46.4093L38.2416 37.9774L39.4218 36.9393L45.9393 44.3492L49.8329 40.9245Z" fill="black"/>
<path d="M46.8406 31.1614L48.1658 30.3161L54.205 39.7834L52.8798 40.6287L46.8406 31.1614Z" fill="black"/>
<path d="M57.2217 37.9762L52.726 27.6859L58.9328 24.9742L59.4712 26.2066L54.7047 28.2891L56.0606 31.3925L60.2925 29.5436L60.8245 30.7612L56.5926 32.6101L58.662 37.3469L57.2217 37.9762Z" fill="black"/>
<path d="M70.9328 21.9982L71.2127 23.3303L67.7557 24.0567L69.785 33.7142L68.2468 34.0374L66.2175 24.3799L62.7605 25.1064L62.4806 23.7743L70.9328 21.9982Z" fill="black"/>
<path d="M84.5422 21.819C86.1096 21.9948 87.2783 22.4303 88.0482 23.1254C88.8301 23.811 89.1548 24.7442 89.0223 25.9251C88.9501 26.5692 88.77 27.1089 88.482 27.544C88.206 27.9696 87.8316 28.3026 87.359 28.5431C86.8982 28.7741 86.3493 28.919 85.7122 28.978C85.0751 29.037 84.3647 29.0226 83.581 28.9346L82.3411 28.7956L81.8769 32.9341L80.3149 32.7589L81.5485 21.7604C82.0007 21.7024 82.497 21.6874 83.0374 21.7154C83.5897 21.7339 84.0913 21.7684 84.5422 21.819ZM84.5175 23.2022C83.8519 23.1276 83.3402 23.0865 82.9823 23.0789L82.491 27.459L83.6665 27.5909C84.2033 27.6511 84.69 27.673 85.1267 27.6568C85.5645 27.6298 85.9374 27.5521 86.2453 27.4236C86.5652 27.2855 86.8219 27.0806 87.0154 26.8088C87.209 26.537 87.331 26.1756 87.3816 25.7248C87.4298 25.2953 87.3836 24.9314 87.2432 24.633C87.1134 24.3359 86.9127 24.0905 86.6409 23.897C86.381 23.6939 86.0668 23.5391 85.6983 23.4325C85.3298 23.3259 84.9362 23.2492 84.5175 23.2022Z" fill="black"/>
<path d="M97.5115 35.1842L97.0819 36.4757L90.6702 34.3428L94.2148 23.6874L95.7063 24.1836L92.5913 33.5474L97.5115 35.1842Z" fill="black"/>
<path d="M104.436 27.6756L105.834 28.3941L100.701 38.3818L99.3028 37.6633L104.436 27.6756Z" fill="black"/>
<path d="M103.781 40.0785L110.403 31.0091L115.873 35.0031L115.08 36.0894L110.879 33.0222L108.882 35.7574L112.612 38.4806L111.829 39.5538L108.099 36.8305L105.051 41.0054L103.781 40.0785Z" fill="black"/>
<path d="M124.493 43.869L123.484 44.7821L121.114 42.1624L113.796 48.7826L112.741 47.617L120.06 40.9968L117.69 38.3771L118.699 37.464L124.493 43.869Z" fill="black"/>
<path d="M131.508 55.533C132.146 56.9753 132.359 58.2042 132.147 59.2195C131.949 60.2403 131.306 60.9912 130.22 61.4719C129.627 61.7342 129.07 61.8506 128.549 61.8212C128.042 61.7973 127.566 61.6419 127.12 61.3549C126.688 61.0733 126.286 60.6723 125.914 60.1518C125.542 59.6312 125.197 59.0104 124.878 58.2892L124.373 57.1482L120.564 58.8331L119.929 57.3957L130.05 52.9178C130.328 53.2791 130.591 53.7002 130.839 54.1811C131.101 54.6674 131.324 55.1181 131.508 55.533ZM130.301 56.2088C130.03 55.5963 129.807 55.1336 129.633 54.8207L125.603 56.604L126.081 57.6858C126.3 58.1797 126.526 58.6112 126.76 58.9801C127.004 59.3447 127.259 59.6275 127.526 59.8287C127.806 60.0354 128.112 60.1538 128.445 60.184C128.777 60.2142 129.151 60.1375 129.566 59.9539C129.961 59.7791 130.252 59.5558 130.439 59.2841C130.63 59.0223 130.741 58.7252 130.771 58.3929C130.815 58.0661 130.791 57.7167 130.697 57.3447C130.603 56.9727 130.471 56.5941 130.301 56.2088Z" fill="black"/>
<path d="M126.508 73.4705L125.176 73.7504L123.786 67.1376L134.776 64.8286L135.099 66.3668L125.442 68.396L126.508 73.4705Z" fill="black"/>
<path d="M136.474 75.6648L136.558 77.2343L125.345 77.8349L125.261 76.2654L136.474 75.6648Z" fill="black"/>
<path d="M125.434 81.3525L136.605 82.5005L135.913 89.2384L134.575 89.1009L135.106 83.9266L131.738 83.5804L131.265 88.1744L129.944 88.0385L130.416 83.4445L125.274 82.9161L125.434 81.3525Z" fill="black"/>
<path d="M132.601 101.151L131.303 100.74L132.371 97.3725L122.965 94.3884L123.44 92.8902L132.847 95.8743L133.915 92.5071L135.212 92.9187L132.601 101.151Z" fill="black"/>
</g>
<defs>
<clipPath id="clip0_16_253">
<rect width="160" height="160" rx="80" fill="white"/>
</clipPath>
</defs>
</svg>
