<svg width="110" height="78" viewBox="0 0 110 78" fill="none" xmlns="http://www.w3.org/2000/svg">
<path d="M63.8899 24.8562C65.7422 25.2089 67.819 23.7264 68.5246 21.5439C69.2303 19.3614 68.3001 17.3062 66.4479 16.9535C64.5956 16.6008 62.5188 18.0832 61.8132 20.2657C61.1075 22.4482 62.0377 24.5034 63.8899 24.8562Z" fill="#CDED70"/>
<path d="M40.4894 26.413C42.6063 19.9371 42.1118 13.31 39.1342 8.22901C36.6619 4.00985 32.6606 1.19619 27.8709 0.305153C22.5921 -0.676047 16.907 0.726804 11.8633 4.25647C6.94265 7.70128 3.18732 12.7903 1.29495 18.5873C-0.290037 23.4403 -0.410314 28.3754 0.880664 32.6821C0.947485 32.9075 1.20942 33.0136 1.42325 32.8969C3.31027 31.8892 4.08539 31.4755 5.5501 30.6587C5.73987 30.5527 5.84144 30.3379 5.80135 30.131C5.21065 27.1821 5.34964 23.3607 6.42412 20.075C7.94496 15.4209 10.9466 11.345 14.8729 8.59497C18.6176 5.9749 22.7471 4.89028 26.5185 5.53469C26.5773 5.5453 26.6388 5.5559 26.6976 5.56651C30.0279 6.18705 32.7061 8.07785 34.4408 11.0374C36.6672 14.8322 37.0013 19.8947 35.3575 24.92C33.8367 29.5741 30.8351 33.6501 26.9087 36.4001C23.5035 38.7841 19.6252 39.9006 16.4847 39.6062C16.1693 39.5771 16.18 39.2721 16.2762 39.0281L27.1947 11.589C27.2909 11.3609 27.1332 11.2044 26.9354 11.1938H22.1484C21.8357 11.1938 21.6512 11.3821 21.5737 11.5571L2.81045 58.7529C2.70621 59.0154 2.89331 59.2912 3.17395 59.2912H7.9316C8.19888 59.2912 8.30312 59.1109 8.35123 58.981L13.9562 44.857C13.9909 44.7721 14.0791 44.7217 14.1673 44.7376C19.3713 45.626 24.9549 44.2126 29.9183 40.7386C34.839 37.2938 38.5943 32.2074 40.4867 26.4104L40.4894 26.413Z" fill="#CDED70"/>
<path d="M40.3958 55.2178C40.5428 55.2178 40.7432 55.1197 40.81 54.9473L57.6516 12.6231C57.7398 12.4215 57.5981 12.0688 57.264 12.0688H52.3487C52.1696 12.0688 52.0253 12.1855 51.9451 12.3659L35.0421 54.8439C34.9699 55.0216 35.1035 55.2152 35.296 55.2152H40.3984L40.3958 55.2178Z" fill="#CDED70"/>
<path d="M109.491 28.3857H97.156C96.7203 28.4042 96.5519 28.1682 96.7123 27.736L99.6952 20.2152C99.7941 19.9739 99.6123 19.7087 99.3504 19.7087H94.2132C94.1383 19.7087 94.0689 19.7538 94.0421 19.8227L90.7599 28.0887C90.6877 28.269 90.5113 28.3857 90.3162 28.3857H81.2419C80.8196 28.3857 80.6352 28.155 80.7982 27.736L85.2859 16.4442L85.342 16.2877C85.3527 16.2559 86.3951 13.1293 88.4238 10.2069C90.7946 6.79396 93.267 5.19752 95.9853 5.47862C97.1961 5.60326 98.1503 6.11242 98.6394 6.95572C99.2408 7.99262 98.9548 10.3422 98.022 12.53C97.9258 12.7581 98.0915 13.01 98.34 13.01H103.175C103.325 13.01 103.459 12.9145 103.504 12.774C104.514 9.72165 104.643 6.63485 103.346 4.34096C101.999 1.95691 99.623 0.471844 96.6562 0.164225C91.8558 -0.334331 87.4482 2.12663 83.9067 7.27926C81.6455 10.5703 80.4481 13.9408 80.2423 14.5481L74.7897 28.269C74.763 28.3379 74.6935 28.3857 74.6186 28.3857H70.6629C70.4624 28.3857 70.2806 28.5103 70.2138 28.6986L68.5513 33.2307C68.4631 33.4694 68.6422 33.7239 68.8988 33.7239H72.0153C72.3895 33.7239 72.5178 33.9865 72.3842 34.3206L64.355 54.6819C61.4149 61.1551 57.8279 65.8596 53.5086 68.9384C50.05 71.4047 46.3 72.6484 42.3362 72.6484C41.5557 72.6484 40.7699 72.6007 39.9734 72.5052C35.5392 71.9696 31.6368 69.6518 29.2687 66.1513C28.3893 64.8519 27.7425 63.4278 27.3336 61.9215C27.2748 61.7014 27.0716 61.5476 26.8391 61.5476H22.1857C21.9398 61.5476 21.7607 61.7704 21.8061 62.009C22.3193 64.5522 23.3163 66.9601 24.7864 69.1347C28.0285 73.9293 33.3261 77.093 39.3159 77.8196C40.3102 77.939 41.2991 78 42.2827 78C47.3745 78 52.2925 76.3956 56.6519 73.2902C61.7703 69.6412 66.2313 64.1199 69.3024 56.8113L69.3264 56.7583L78.3098 34.0024C78.3766 33.8459 78.4755 33.7266 78.7589 33.7266H88.0309C88.2501 33.7266 88.4024 33.9467 88.3196 34.1509L83.8105 45.3711L83.7918 45.4161C81.5306 51.3246 83.4043 54.894 84.722 56.4931C86.3497 58.4714 88.806 59.5932 91.3586 59.5932C91.821 59.5932 92.2861 59.556 92.7511 59.4818C95.5656 59.0257 98.193 57.3735 100.35 54.7084C102.178 52.449 103.638 49.4682 104.608 46.0261C104.68 45.7662 104.485 45.5063 104.212 45.5063H99.4038C99.2408 45.5063 99.0991 45.6097 99.0483 45.7635C97.458 50.5078 94.8787 53.7298 91.9894 54.1992C91.1421 54.3371 89.8618 54.125 89.0092 53.1066C88.1565 52.0883 87.8599 50.2214 88.8301 47.3388L94.1811 34.0289C94.2827 33.7796 94.435 33.7292 94.6301 33.7292H107.805C107.994 33.7292 108.267 33.6974 108.406 33.3155L109.97 29.0566C110.082 28.7463 109.873 28.4069 109.499 28.3883L109.491 28.3857Z" fill="#CDED70"/>
<path d="M54.5939 55.2179C54.7409 55.2179 54.9413 55.1197 55.0082 54.9474L65.2959 28.98C65.3841 28.7785 65.2424 28.4258 64.9083 28.4258H59.993C59.8139 28.4258 59.6696 28.5425 59.5894 28.7228L49.2375 54.8466C49.1653 55.0243 49.299 55.2179 49.4914 55.2179H54.5939V55.2179Z" fill="#CDED70"/>
</svg>
