<svg width="14" height="16" viewBox="0 0 14 16" fill="none" xmlns="http://www.w3.org/2000/svg">
<path fill-rule="evenodd" clip-rule="evenodd" d="M10.1795 0.381836V0.394814C10.1803 0.628789 10.2526 4.01229 13.9983 4.22342C13.9983 7.37111 14.0001 4.22342 14.0001 6.83772C13.7187 6.85363 11.5345 6.70392 10.1755 5.5547L10.1712 10.644C10.2048 12.9485 8.85151 15.2086 6.31792 15.6639C5.60811 15.7913 4.96888 15.8057 3.89598 15.5835C-2.28499 13.8308 -0.231156 5.14067 5.97507 6.07072C5.97507 8.87623 5.9768 6.06999 5.9768 8.87623C3.41294 8.51869 2.55523 10.5406 3.23669 11.9881C3.85683 13.306 6.40951 13.5919 7.3 11.7326C7.40085 11.3686 7.45118 10.9537 7.45118 10.4879V0.381836H10.1795Z" fill="white"/>
</svg>
