<svg width="18" height="16" viewBox="0 0 18 16" fill="none" xmlns="http://www.w3.org/2000/svg">
<path fill-rule="evenodd" clip-rule="evenodd" d="M5.51411 15.4658C12.1302 15.4658 15.749 9.68334 15.749 4.66936C15.749 4.50476 15.749 4.34108 15.7384 4.17832C16.4424 3.64197 17.0499 2.97615 17.5329 2.21416C16.8772 2.52118 16.1803 2.72277 15.4676 2.81155C16.218 2.33716 16.7799 1.59181 17.049 0.712377C16.3424 1.15441 15.5701 1.46604 14.7645 1.63342C13.4022 0.105743 11.1238 0.0317635 9.67467 1.46882C8.74104 2.39541 8.34392 3.77699 8.63409 5.09475C5.74204 4.94124 3.04722 3.50049 1.22029 1.13036C0.265624 2.86426 0.753916 5.0818 2.33451 6.1952C1.76206 6.17763 1.20188 6.01487 0.701317 5.7208V5.76889C0.702194 7.57492 1.90934 9.13034 3.58724 9.48822C3.05774 9.6408 2.50195 9.66299 1.96369 9.55295C2.43445 11.0991 3.78536 12.158 5.32387 12.1885C4.05011 13.2445 2.47653 13.8179 0.856484 13.816C0.570697 13.8151 0.28491 13.7975 0 13.7615C1.64547 14.8749 3.55919 15.4658 5.51411 15.463" fill="white"/>
</svg>
