<svg width="20" height="14" viewBox="0 0 20 14" fill="none" xmlns="http://www.w3.org/2000/svg">
<path d="M19.2594 2.43668C19.0395 1.62594 18.4062 0.992613 17.5954 0.772712C16.1366 0.374405 10.2651 0.374405 10.2651 0.374405C10.2651 0.374405 4.39319 0.386146 2.9341 0.784453C2.12336 1.00435 1.49004 1.63768 1.27013 2.44842C0.884155 3.90751 0.884155 6.95806 0.884155 6.95806C0.884155 6.95806 0.884155 10.0086 1.28217 11.4794C1.50207 12.2902 2.1354 12.9235 2.94613 13.1434C4.40493 13.5417 10.2768 13.5417 10.2768 13.5417C10.2768 13.5417 16.1487 13.5417 17.6078 13.1437C18.4185 12.9238 19.0518 12.2905 19.2717 11.4797C19.6694 10.0207 19.6694 6.95806 19.6694 6.95806C19.6694 6.95806 19.6577 3.90751 19.2594 2.43668Z" fill="white"/>
<path d="M8.39568 9.7794L13.2666 6.95808L8.39539 4.13676L8.39568 9.7794Z" fill="#2D2D2D"/>
</svg>
